# xmcd CD database file
#
# Track frame offsets:
#	150
#	13947
#	28898
#	47138
#	63630
#	75418
#	92909
#	109010
#	127671
#	147517
#	166700
#	192964
#
# Disc length: 2973 seconds
#
# Revision: 1
# Processed by: cddbd v1.5.2PL0 Copyright (c) Steve Scherf et al.
# Submitted via: CDex 1.70beta2
#
DISCID=9d0b9b0c
DTITLE=Zahara - La fabulosa historia de la chica que perdió el avión
DYEAR=2009
DGENRE=Country
TTITLE0=Merezco
TTITLE1=En la habitación
TTITLE2=Funeral
TTITLE3=Photofinish
TTITLE4=Chico fabuloso
TTITLE5=La canción más fea del mundo
TTITLE6=Chica pop
TTITLE7=Olor a mandarinas
TTITLE8=Domingo astromántico
TTITLE9=Con las ganas
TTITLE10=Tú me llevas
TTITLE11=Datatrack 12
EXTD=YEAR: 2009
EXTT0=
EXTT1=
EXTT2=
EXTT3=
EXTT4=
EXTT5=
EXTT6=
EXTT7=
EXTT8=
EXTT9=
EXTT10=
EXTT11=
PLAYORDER=
